<svg xmlns="http://www.w3.org/2000/svg" xmlns:xlink="http://www.w3.org/1999/xlink" width="192" height="192" viewBox="0 0 192 192">
  <defs>
    <clipPath id="clip-path">
      <path id="Path_941" data-name="Path 941" d="M280,117a24,24,0,1,1,24,24A24,24,0,0,1,280,117Z" fill="#fff"/>
    </clipPath>
    <clipPath id="clip-path-2">
      <rect id="Rectangle_64" data-name="Rectangle 64" width="27.84" height="27.84" transform="translate(290.08 103.08)" fill="#5c5c5c"/>
    </clipPath>
  </defs>
  <g id="Group_220" data-name="Group 220" transform="translate(-842.5 -368.735)">
    <g id="Visual_Picker" data-name="Visual Picker" transform="translate(843 369.235)">
      <path id="Path_930" data-name="Path 930" d="M208.5,29a7.5,7.5,0,0,1,7.5-7.5H392a7.5,7.5,0,0,1,7.5,7.5V205a7.5,7.5,0,0,1-7.5,7.5H216a7.5,7.5,0,0,1-7.5-7.5Z" transform="translate(-208.5 -21.5)" fill="#fff"/>
      <path id="Path_931" data-name="Path 931" d="M208.5,29a7.5,7.5,0,0,1,7.5-7.5H392a7.5,7.5,0,0,1,7.5,7.5V205a7.5,7.5,0,0,1-7.5,7.5H216a7.5,7.5,0,0,1-7.5-7.5Z" transform="translate(-208.5 -21.5)" fill="none" stroke="#c9c9c9" stroke-width="1"/>
    </g>
    <g id="Component_3_1" data-name="Component 3 – 1" transform="translate(915 441)">
      <g id="Group_100" data-name="Group 100" transform="translate(-280 -93)" clip-path="url(#clip-path)">
        <path id="Path_940" data-name="Path 940" d="M4,0H44a4,4,0,0,1,4,4V44a4,4,0,0,1-4,4H4a4,4,0,0,1-4-4V4A4,4,0,0,1,4,0Z" transform="translate(280 93)" fill="#ff5d2d"/>
        <g id="Mask_Group_4" data-name="Mask Group 4" clip-path="url(#clip-path-2)">
          <path id="product_service_campaign" d="M21.993,28.628a.464.464,0,0,1,.464.418V35.68a1.392,1.392,0,0,1-1.3,1.392H11.6a1.392,1.392,0,0,1-1.392-1.3V29.092a.464.464,0,0,1,.418-.464Zm13.734,0a.464.464,0,0,1,.464.418V35.68A1.392,1.392,0,0,1,34.8,37.072H25.38a1.392,1.392,0,0,1-1.392-1.3V29.092a.464.464,0,0,1,.418-.464ZM18.374,30.577l-.046.046-2.691,2.923-1.253-1.16a.371.371,0,0,0-.464-.046l-.51.464a.278.278,0,0,0-.046.464l1.763,1.67a.742.742,0,0,0,.464.186.65.65,0,0,0,.557-.186l1.438-1.531.278-.325,1.485-1.531a.371.371,0,0,0,0-.464l-.51-.464A.371.371,0,0,0,18.374,30.577Zm13.688,0-.046.046-2.691,2.923-1.253-1.16a.371.371,0,0,0-.464-.046l-.51.464a.278.278,0,0,0-.046.464l1.763,1.67a.7.7,0,0,0,.464.186.65.65,0,0,0,.557-.186l1.438-1.531.278-.325,1.485-1.531a.371.371,0,0,0,0-.464l-.557-.464a.371.371,0,0,0-.464-.046ZM21.2,23.9a1.392,1.392,0,0,1,1.3,1.346v1.485a.464.464,0,0,1-.371.464H9.744a.464.464,0,0,1-.464-.464V25.333a1.392,1.392,0,0,1,1.3-1.438H21.25Zm14.615,0a1.392,1.392,0,0,1,1.3,1.346v1.485a.464.464,0,0,1-.371.464H24.313a.464.464,0,0,1-.464-.464V25.333A1.392,1.392,0,0,1,25.1,23.9H35.773Zm-6.96-9.883a.464.464,0,0,1,.464.418v6.681A1.392,1.392,0,0,1,27.932,22.5H18.513a1.392,1.392,0,0,1-1.392-1.3V14.476a.464.464,0,0,1,.418-.464H28.86Zm-3.665,1.949L22.41,18.931l-1.16-1.16a.371.371,0,0,0-.464-.046l-.557.464a.278.278,0,0,0,0,.464l1.717,1.67a.742.742,0,0,0,.51.186.65.65,0,0,0,.51-.186l1.485-1.531.278-.325,1.438-1.531a.371.371,0,0,0,0-.464l-.464-.464a.371.371,0,0,0-.464,0ZM28.86,9.28a1.392,1.392,0,0,1,1.392,1.346v1.438a.464.464,0,0,1-.464.464H16.657a.464.464,0,0,1-.464-.418V10.672a1.392,1.392,0,0,1,1.3-1.392H28.86Z" transform="translate(280.801 93.824)" fill="#fff"/>
        </g>
      </g>
    </g>
  </g>
</svg>
