<svg xmlns="http://www.w3.org/2000/svg" xmlns:xlink="http://www.w3.org/1999/xlink" width="192" height="192" viewBox="0 0 192 192">
  <defs>
    <clipPath id="clip-path">
      <path id="Path_1045" data-name="Path 1045" d="M280,117a24,24,0,1,1,24,24A24,24,0,0,1,280,117Z" fill="#fff"/>
    </clipPath>
    <clipPath id="clip-path-2">
      <rect id="Rectangle_106" data-name="Rectangle 106" width="32.541" height="32.541" transform="translate(290.08 103.08)" fill="#5c5c5c"/>
    </clipPath>
  </defs>
  <g id="Group_234" data-name="Group 234" transform="translate(-1204.5 -272.5)">
    <g id="Visual_Picker" data-name="Visual Picker" transform="translate(1205 273)">
      <path id="Path_930" data-name="Path 930" d="M208.5,29a7.5,7.5,0,0,1,7.5-7.5H392a7.5,7.5,0,0,1,7.5,7.5V205a7.5,7.5,0,0,1-7.5,7.5H216a7.5,7.5,0,0,1-7.5-7.5Z" transform="translate(-208.5 -21.5)" fill="#fff"/>
      <path id="Path_931" data-name="Path 931" d="M208.5,29a7.5,7.5,0,0,1,7.5-7.5H392a7.5,7.5,0,0,1,7.5,7.5V205a7.5,7.5,0,0,1-7.5,7.5H216a7.5,7.5,0,0,1-7.5-7.5Z" transform="translate(-208.5 -21.5)" fill="none" stroke="#c9c9c9" stroke-width="1"/>
    </g>
    <g id="Group_225" data-name="Group 225" transform="translate(997 251)" clip-path="url(#clip-path)">
      <path id="Path_1044" data-name="Path 1044" d="M4,0H44a4,4,0,0,1,4,4V44a4,4,0,0,1-4,4H4a4,4,0,0,1-4-4V4A4,4,0,0,1,4,0Z" transform="translate(280 93)" fill="#ff538a"/>
      <g id="Mask_Group_45" data-name="Mask Group 45" transform="translate(-2.08 -2.08)" clip-path="url(#clip-path-2)">
        <g id="Group_233" data-name="Group 233" transform="translate(294.254 107.255)">
          <g id="Artwork_1126" data-name="Artwork 1126" transform="translate(0 0)">
            <g id="Artwork_1126-2" data-name="Artwork 1126" transform="translate(0 0)">
              <path id="Path_1052" data-name="Path 1052" d="M21.686,6.194,19.9,7.98l3.275,3.275a.649.649,0,0,1,0,.918l-2.518,2.518a.649.649,0,0,1-.918,0l-.909-.909L10.795,21.82A4.51,4.51,0,0,1,7.566,23.1a6.336,6.336,0,0,1-3.855-1.4L1.477,23.93a.876.876,0,0,1-1.224,0,.865.865,0,0,1,0-1.224l2.228-2.229a6.373,6.373,0,0,1-1.371-3.293,4.637,4.637,0,0,1,1.274-3.821l.016-.016,3.295,3.3a.828.828,0,0,0,1.219,0,.865.865,0,0,0,0-1.229L3.621,12.126,4.848,10.9l3.287,3.294a.851.851,0,0,0,1.229,0,.838.838,0,0,0,0-1.23L6.07,9.677,7.3,8.45l3.287,3.294a.868.868,0,0,0,1.229,0,.834.834,0,0,0,0-1.22L8.518,7.23,10.4,5.35,9.49,4.442a.649.649,0,0,1,0-.918l2.518-2.518a.669.669,0,0,1,.918,0L16.2,4.279l1.785-1.785L16.967,1.477A.865.865,0,0,1,18.191.253L23.927,5.99A.865.865,0,0,1,22.7,7.214Z" transform="translate(0 0)" fill="#fff"/>
            </g>
          </g>
        </g>
      </g>
    </g>
  </g>
</svg>
