<svg xmlns="http://www.w3.org/2000/svg" xmlns:xlink="http://www.w3.org/1999/xlink" width="192" height="192" viewBox="0 0 192 192">
  <defs>
    <clipPath id="clip-path">
      <path id="Path_941" data-name="Path 941" d="M280,117a24,24,0,1,1,24,24A24,24,0,0,1,280,117Z" fill="#fff"/>
    </clipPath>
    <clipPath id="clip-path-2">
      <rect id="Rectangle_64" data-name="Rectangle 64" width="27.84" height="27.84" transform="translate(290.08 103.08)" fill="#5c5c5c"/>
    </clipPath>
  </defs>
  <g id="Component_32_1" data-name="Component 32 – 1" transform="translate(0.5 0.5)">
    <g id="Visual_Picker" data-name="Visual Picker">
      <path id="Path_930" data-name="Path 930" d="M208.5,29a7.5,7.5,0,0,1,7.5-7.5H392a7.5,7.5,0,0,1,7.5,7.5V205a7.5,7.5,0,0,1-7.5,7.5H216a7.5,7.5,0,0,1-7.5-7.5Z" transform="translate(-208.5 -21.5)" fill="#fff"/>
      <path id="Path_931" data-name="Path 931" d="M208.5,29a7.5,7.5,0,0,1,7.5-7.5H392a7.5,7.5,0,0,1,7.5,7.5V205a7.5,7.5,0,0,1-7.5,7.5H216a7.5,7.5,0,0,1-7.5-7.5Z" transform="translate(-208.5 -21.5)" fill="none" stroke="#c9c9c9" stroke-width="1"/>
    </g>
    <g id="Group_100" data-name="Group 100" transform="translate(-208 -21.235)" clip-path="url(#clip-path)">
      <path id="Path_940" data-name="Path 940" d="M4,0H44a4,4,0,0,1,4,4V44a4,4,0,0,1-4,4H4a4,4,0,0,1-4-4V4A4,4,0,0,1,4,0Z" transform="translate(280 93)" fill="#1b96ff"/>
      <g id="Mask_Group_2" data-name="Mask Group 2" clip-path="url(#clip-path-2)">
        <path id="travel_and_places" d="M27.26,12.18,24.65,5.1a3.19,3.19,0,0,0-3.074-2.2H8.584A3.306,3.306,0,0,0,5.452,5.1L2.9,12.18a2.709,2.709,0,0,0-1.74,2.784v6.728c0,1.16,1.276,2.262,2.32,2.668v2.32a1.041,1.041,0,0,0,1.16,1.16h2.9A1.018,1.018,0,0,0,8.7,26.68V24.36H21.46v2.32a1.041,1.041,0,0,0,1.16,1.16h2.9a1.041,1.041,0,0,0,1.16-1.16V24.36c1.044-.406,2.32-1.392,2.32-2.668V14.964A2.709,2.709,0,0,0,27.26,12.18ZM6.38,19.72A2.32,2.32,0,1,1,8.7,17.4,2.327,2.327,0,0,1,6.38,19.72Zm9.628-7.54H6.844a.44.44,0,0,1-.464-.58L8.12,6.38A.615.615,0,0,1,8.7,5.8H21.46a.6.6,0,0,1,.58.58l1.74,5.22c.116.348-.058.58-.58.58Zm7.772,7.54A2.32,2.32,0,1,1,26.1,17.4,2.327,2.327,0,0,1,23.78,19.72Z" transform="translate(288.92 101.63)" fill="#fff"/>
      </g>
    </g>
  </g>
</svg>
